<?xml version="1.0" encoding="utf-8"?>
<!-- Generator: Adobe Illustrator 18.0.0, SVG Export Plug-In . SVG Version: 6.00 Build 0)  -->
<!DOCTYPE svg PUBLIC "-//W3C//DTD SVG 1.1//EN" "http://www.w3.org/Graphics/SVG/1.1/DTD/svg11.dtd">
<svg version="1.1" id="Layer_1" xmlns="http://www.w3.org/2000/svg" xmlns:xlink="http://www.w3.org/1999/xlink" x="0px" y="0px"
	 viewBox="0 0 416.7 109.5" enable-background="new 0 0 416.7 109.5" xml:space="preserve">
<g>
	<defs>
		<rect id="SVGID_1_" width="416.7" height="109.5"/>
	</defs>
	<clipPath id="SVGID_2_">
		<use xlink:href="#SVGID_1_"  overflow="visible"/>
	</clipPath>
	<path clip-path="url(#SVGID_2_)" fill="#FFFFFF" d="M73,99.7c-0.3-0.8-1-1.4-1.9-1.4c-0.3,0-0.7,0.1-0.9,0.2
		c-6.6,3.7-14.1,5.6-21.7,5.6c-24.6,0-44.6-20-44.6-44.6c0-11.9,4.6-23.1,13.1-31.6C25.4,19.6,36.6,15,48.5,15h0.1
		C73.1,15,93.1,35,93.1,59.6c0,7.6-2,15.1-5.6,21.7c-0.3,0.5-0.3,1.1-0.1,1.7c0.2,0.5,0.7,1,1.3,1.1c0.2,0.1,0.4,0.1,0.6,0.1
		c0.7,0,1.4-0.4,1.7-1c5.7-10.1,7.4-21.7,5.1-33.4C94.8,43.7,92.5,38,89,32.8C79.7,19,64.9,11.1,48.5,11.1c-13,0-25.1,5-34.3,14.2
		C5,34.5,0,46.7,0,59.6s5,25.1,14.2,34.3c9.2,9.2,21.3,14.2,34.3,14.2c8.3,0,16.4-2.1,23.6-6.1C72.9,101.6,73.3,100.6,73,99.7
		L73,99.7z"/>
	<path clip-path="url(#SVGID_2_)" fill="#FFFFFF" d="M97.5,97c-0.4-5.5-4.8-10-10.3-10.3c-0.2,0-0.5,0-0.7,0c-3,0-6,1.3-8.1,3.5
		c-2.1,2.3-3.2,5.2-3,8.3c0.4,5.5,4.8,10,10.3,10.3c0.2,0,0.5,0,0.7,0l0,0c3,0,6-1.3,8.1-3.5C96.7,103,97.7,100.1,97.5,97
		 M93.6,98.4c-0.3,3.4-3.1,6.2-6.5,6.5c-0.2,0-0.4,0-0.7,0c-2,0-3.9-0.9-5.3-2.3c-1.4-1.5-2-3.5-1.9-5.5c0.3-3.4,3.1-6.2,6.5-6.5
		c0.2,0,0.4,0,0.7,0c2,0,3.9,0.9,5.3,2.3C93.2,94.4,93.8,96.3,93.6,98.4"/>
	<path clip-path="url(#SVGID_2_)" fill="#FFFFFF" d="M46.2,59.6c0,0.5,0.2,1.1,0.6,1.5c0.4,0.4,0.9,0.6,1.5,0.6s1.1-0.2,1.5-0.6
		l14.4-14.4c0.8-0.8,0.8-2.1,0-2.9c-4.2-4.2-9.8-6.5-15.8-6.5c-6,0-11.6,2.3-15.8,6.5c-4.2,4.2-6.5,9.8-6.5,15.8
		c0,6,2.3,11.6,6.5,15.8c4.2,4.2,9.8,6.5,15.8,6.5c6,0,11.6-2.3,15.8-6.5c4.2-4.2,6.6-9.9,6.6-15.8c0-1.1-0.9-2.1-2.1-2.1
		c-1.1,0-2.1,0.9-2.1,2.1c0,4.9-1.9,9.5-5.4,12.9c-3.5,3.4-8,5.3-12.9,5.3c-4.9,0-9.5-1.9-12.9-5.3c-3.4-3.5-5.3-8-5.3-12.9
		c0-4.9,1.9-9.5,5.3-12.9c3.4-3.4,8-5.3,12.9-5.3c3.3,0,6.5,0.9,9.3,2.5l2.2,1.3l-13,13C46.4,58.5,46.2,59.1,46.2,59.6"/>
	<path clip-path="url(#SVGID_2_)" fill="#FFFFFF" d="M159.5,78.6c2.2,0,4,0.4,5.6,1.2c1.6,0.8,3,2.1,4.2,4h0.2
		c-0.1-2.3-0.2-4.6-0.2-6.8V66.3h2.7V109h-1.8l-0.7-4.5h-0.2c-2.3,3.4-5.5,5.1-9.8,5.1c-4.1,0-7.3-1.3-9.4-3.8
		c-2.2-2.6-3.3-6.3-3.3-11.2c0-5.2,1.1-9.1,3.2-11.8C152.2,79.9,155.3,78.6,159.5,78.6 M159.5,81.1c-3.3,0-5.7,1.1-7.3,3.4
		c-1.6,2.3-2.5,5.6-2.5,9.9c0,8.4,3.3,12.7,9.8,12.7c3.4,0,5.8-1,7.4-2.9c1.6-2,2.4-5.2,2.4-9.7V94c0-4.6-0.8-7.9-2.3-9.9
		C165.4,82.1,162.9,81.1,159.5,81.1"/>
	<path clip-path="url(#SVGID_2_)" fill="#FFFFFF" d="M200.6,108.9l-0.7-4.7h-0.2c-1.5,1.9-3,3.3-4.6,4.1c-1.6,0.8-3.4,1.2-5.6,1.2
		c-2.9,0-5.2-0.7-6.8-2.2c-1.6-1.5-2.4-3.6-2.4-6.2c0-2.9,1.2-5.2,3.6-6.8c2.4-1.6,5.9-2.5,10.5-2.5l5.7-0.2v-2c0-2.8-0.6-5-1.7-6.4
		s-3-2.2-5.6-2.2c-2.8,0-5.6,0.8-8.6,2.3l-1-2.4c3.3-1.5,6.5-2.3,9.7-2.3c3.3,0,5.7,0.8,7.3,2.5c1.6,1.7,2.4,4.3,2.4,7.9v19.8H200.6
		z M189.6,107c3.2,0,5.7-0.9,7.5-2.7c1.8-1.8,2.8-4.3,2.8-7.6v-2.9l-5.2,0.2c-4.2,0.2-7.2,0.9-8.9,2c-1.8,1.1-2.7,2.8-2.7,5.2
		c0,1.9,0.6,3.3,1.7,4.3C185.9,106.5,187.6,107,189.6,107"/>
	<path clip-path="url(#SVGID_2_)" fill="#FFFFFF" d="M231.3,101.2c0,2.7-1,4.7-3,6.2s-4.9,2.2-8.6,2.2c-4,0-7.1-0.6-9.5-1.8v-2.9
		c3,1.5,6.2,2.2,9.5,2.2c2.9,0,5.2-0.5,6.7-1.5c1.5-1,2.3-2.3,2.3-3.9c0-1.5-0.6-2.8-1.8-3.8c-1.2-1-3.2-2-6-3c-3-1.1-5.1-2-6.3-2.8
		c-1.2-0.8-2.1-1.7-2.7-2.6c-0.6-1-0.9-2.2-0.9-3.6c0-2.2,0.9-4,2.8-5.3c1.9-1.3,4.5-1.9,7.9-1.9c3.2,0,6.3,0.6,9.2,1.8l-1,2.5
		c-2.9-1.2-5.6-1.8-8.1-1.8c-2.4,0-4.4,0.4-5.8,1.2s-2.1,1.9-2.1,3.3c0,1.6,0.6,2.8,1.7,3.7s3.3,2,6.5,3.1c2.7,1,4.6,1.8,5.9,2.6
		c1.2,0.8,2.1,1.7,2.8,2.6C231,98.7,231.3,99.9,231.3,101.2"/>
	<path clip-path="url(#SVGID_2_)" fill="#FFFFFF" d="M260.3,108.9V89.6c0-3-0.6-5.2-1.9-6.5c-1.3-1.4-3.2-2-5.9-2
		c-3.6,0-6.2,0.9-7.8,2.7c-1.7,1.8-2.5,4.7-2.5,8.8v16.4h-2.7V66.3h2.7v13.6l-0.1,3.8h0.2c1.1-1.8,2.5-3.1,4.2-3.9
		c1.7-0.8,3.8-1.2,6.3-1.2c6.8,0,10.1,3.6,10.1,10.9v19.5H260.3z"/>
	<path clip-path="url(#SVGID_2_)" fill="#FFFFFF" d="M285.8,78.6c4.2,0,7.3,1.3,9.4,3.9c2.1,2.6,3.2,6.5,3.2,11.5
		c0,4.9-1.1,8.8-3.3,11.5c-2.2,2.7-5.3,4-9.4,4c-2.1,0-4-0.4-5.7-1.3c-1.7-0.9-3-2.1-4-3.7h-0.2l-0.8,4.5h-1.7V66.3h2.7V77
		c0,1.6,0,3.1-0.1,4.4l-0.1,2.3h0.2c1.1-1.8,2.5-3.1,4.1-3.9C281.6,79,283.5,78.6,285.8,78.6 M285.7,81.1c-3.5,0-6,1-7.5,3
		c-1.5,2-2.3,5.3-2.3,9.9v0.5c0,4.5,0.8,7.7,2.4,9.7c1.6,2,4,2.9,7.4,2.9c3.3,0,5.7-1.1,7.3-3.4c1.6-2.3,2.5-5.5,2.5-9.7
		C295.5,85.4,292.2,81.1,285.7,81.1"/>
	<path clip-path="url(#SVGID_2_)" fill="#FFFFFF" d="M331.8,94c0,4.9-1.2,8.7-3.5,11.4c-2.4,2.7-5.6,4.1-9.8,4.1
		c-2.6,0-4.9-0.6-6.9-1.9c-2-1.3-3.5-3.1-4.6-5.4c-1.1-2.4-1.6-5.1-1.6-8.2c0-4.9,1.2-8.6,3.5-11.4c2.4-2.7,5.6-4.1,9.7-4.1
		c4.1,0,7.3,1.4,9.6,4.1C330.6,85.5,331.8,89.2,331.8,94 M308.3,94c0,4.1,0.9,7.3,2.7,9.6c1.8,2.3,4.3,3.4,7.6,3.4
		c3.3,0,5.8-1.1,7.6-3.4c1.8-2.3,2.7-5.5,2.7-9.6c0-4.1-0.9-7.3-2.7-9.6c-1.8-2.3-4.4-3.4-7.7-3.4c-3.3,0-5.8,1.1-7.6,3.4
		C309.2,86.7,308.3,89.9,308.3,94"/>
	<path clip-path="url(#SVGID_2_)" fill="#FFFFFF" d="M358.7,108.9l-0.7-4.7h-0.2c-1.5,1.9-3,3.3-4.6,4.1c-1.6,0.8-3.4,1.2-5.6,1.2
		c-2.9,0-5.2-0.7-6.8-2.2c-1.6-1.5-2.4-3.6-2.4-6.2c0-2.9,1.2-5.2,3.6-6.8c2.4-1.6,5.9-2.5,10.5-2.5l5.7-0.2v-2c0-2.8-0.6-5-1.7-6.4
		s-3-2.2-5.6-2.2c-2.8,0-5.6,0.8-8.6,2.3l-1-2.4c3.3-1.5,6.5-2.3,9.7-2.3c3.3,0,5.7,0.8,7.3,2.5c1.6,1.7,2.4,4.3,2.4,7.9v19.8H358.7
		z M347.7,107c3.2,0,5.7-0.9,7.5-2.7c1.8-1.8,2.8-4.3,2.8-7.6v-2.9l-5.2,0.2c-4.2,0.2-7.2,0.9-8.9,2c-1.8,1.1-2.7,2.8-2.7,5.2
		c0,1.9,0.6,3.3,1.7,4.3C344,106.5,345.6,107,347.7,107"/>
	<path clip-path="url(#SVGID_2_)" fill="#FFFFFF" d="M382.6,78.6c1.3,0,2.6,0.1,4.1,0.4l-0.5,2.6c-1.2-0.3-2.5-0.5-3.9-0.5
		c-2.5,0-4.6,1.1-6.2,3.2c-1.6,2.2-2.4,4.9-2.4,8.2v16.4h-2.7V79.2h2.3l0.3,5.4h0.2c1.2-2.2,2.5-3.7,3.9-4.6
		C379,79,380.6,78.6,382.6,78.6"/>
	<path clip-path="url(#SVGID_2_)" fill="#FFFFFF" d="M404.2,78.6c2.2,0,4,0.4,5.6,1.2c1.6,0.8,3,2.1,4.2,4h0.2
		c-0.1-2.3-0.2-4.6-0.2-6.8V66.3h2.7V109h-1.8l-0.7-4.5H414c-2.3,3.4-5.5,5.1-9.8,5.1c-4.1,0-7.3-1.3-9.4-3.8
		c-2.2-2.6-3.3-6.3-3.3-11.2c0-5.2,1.1-9.1,3.2-11.8C397,79.9,400.1,78.6,404.2,78.6 M404.2,81.1c-3.3,0-5.7,1.1-7.3,3.4
		c-1.6,2.3-2.5,5.6-2.5,9.9c0,8.4,3.3,12.7,9.8,12.7c3.4,0,5.8-1,7.4-2.9c1.6-2,2.4-5.2,2.4-9.7V94c0-4.6-0.8-7.9-2.3-9.9
		C410.1,82.1,407.6,81.1,404.2,81.1"/>
	<path clip-path="url(#SVGID_2_)" fill="#FFFFFF" d="M160.8,42c-4.4,0-7.8-1.4-10.3-4.1c-2.5-2.7-3.7-6.5-3.7-11.4
		c0-4.8,1.2-8.7,3.6-11.6c2.4-2.9,5.6-4.4,9.6-4.4c3.6,0,6.4,1.2,8.5,3.7c2.1,2.5,3.1,5.9,3.1,10.2v2.2h-21.9c0,4.2,1,7.4,2.9,9.5
		c1.9,2.2,4.6,3.3,8.2,3.3c1.7,0,3.3-0.1,4.6-0.4c1.3-0.2,3-0.8,5-1.6v2.5c-1.7,0.7-3.3,1.3-4.7,1.5C164.2,41.9,162.6,42,160.8,42
		 M160,13c-2.9,0-5.3,1-7,2.9c-1.8,1.9-2.8,4.7-3.1,8.3h18.8c0-3.5-0.8-6.3-2.3-8.2C164.8,14,162.7,13,160,13"/>
	<path clip-path="url(#SVGID_2_)" fill="#FFFFFF" d="M191.3,42c-4,0-7.1-1.3-9.3-4c-2.2-2.6-3.3-6.5-3.3-11.4
		c0-5.1,1.1-9.1,3.3-11.9c2.2-2.8,5.3-4.2,9.4-4.2c4.4,0,7.7,1.6,9.9,4.9h0.2l0.5-4.3h2.3v44.1h-2.7V43.6c0-2.3,0.1-4.6,0.2-6.9
		h-0.2C199.4,40.2,196,42,191.3,42 M191.4,39.6c3.7,0,6.3-1,7.9-3c1.6-2,2.4-5.4,2.4-10.2V26c0-4.6-0.8-7.9-2.4-9.9
		c-1.6-2-4.1-3-7.6-3c-3.3,0-5.8,1.2-7.5,3.5c-1.7,2.3-2.6,5.7-2.6,10.2c0,4.3,0.8,7.5,2.5,9.6C185.8,38.5,188.2,39.6,191.4,39.6"/>
	<path clip-path="url(#SVGID_2_)" fill="#FFFFFF" d="M217.5,11.1v19.7c0,3.1,0.6,5.3,1.9,6.7c1.3,1.4,3.3,2.1,6,2.1
		c3.6,0,6.3-0.9,8-2.7c1.7-1.8,2.6-4.8,2.6-8.9V11.1h2.7v30.3h-2.3l-0.5-4.2h-0.2c-2,3.2-5.5,4.7-10.5,4.7
		c-6.9,0-10.4-3.7-10.4-11.1V11.1H217.5z"/>
	<path clip-path="url(#SVGID_2_)" fill="#FFFFFF" d="M249,2.7c0-1.8,0.6-2.7,1.8-2.7c0.6,0,1,0.2,1.4,0.7c0.3,0.5,0.5,1.1,0.5,2
		c0,0.8-0.2,1.5-0.5,2c-0.3,0.5-0.8,0.7-1.4,0.7C249.6,5.4,249,4.5,249,2.7 M252.2,41.5h-2.8V11.1h2.8V41.5z"/>
	<path clip-path="url(#SVGID_2_)" fill="#FFFFFF" d="M275.9,42c-4.7,0-8.1-1.7-10.2-5.2h-0.2l0.1,2.3c0.1,1.4,0.1,2.9,0.1,4.5v11.6
		h-2.8V11.1h2.3l0.5,4.3h0.2c2.1-3.3,5.4-4.9,10-4.9c4.1,0,7.2,1.3,9.4,4c2.1,2.7,3.2,6.6,3.2,11.7c0,5-1.1,8.9-3.4,11.6
		C282.9,40.6,279.8,42,275.9,42 M275.8,39.6c3.1,0,5.5-1.2,7.2-3.5c1.7-2.3,2.6-5.5,2.6-9.7c0-8.9-3.2-13.4-9.7-13.4
		c-3.5,0-6.1,1-7.8,2.9c-1.7,1.9-2.5,5.1-2.5,9.5v0.9c0,4.7,0.8,8.1,2.4,10.2C269.7,38.5,272.2,39.6,275.8,39.6"/>
</g>
</svg>
