<?xml version="1.0" encoding="utf-8"?>
<!-- Generator: Adobe Illustrator 18.0.0, SVG Export Plug-In . SVG Version: 6.00 Build 0)  -->
<!DOCTYPE svg PUBLIC "-//W3C//DTD SVG 1.1//EN" "http://www.w3.org/Graphics/SVG/1.1/DTD/svg11.dtd">
<svg version="1.1" id="Layer_1" xmlns="http://www.w3.org/2000/svg" xmlns:xlink="http://www.w3.org/1999/xlink" x="0px" y="0px"
	 viewBox="0 0 97.6 109.5" enable-background="new 0 0 97.6 109.5" xml:space="preserve">
<g>
	<defs>
		<rect id="SVGID_1_" width="416.7" height="109.5"/>
	</defs>
	<clipPath id="SVGID_2_">
		<use xlink:href="#SVGID_1_"  overflow="visible"/>
	</clipPath>
	<path clip-path="url(#SVGID_2_)" fill="#FFFFFF" d="M73,99.7c-0.3-0.8-1-1.4-1.9-1.4c-0.3,0-0.7,0.1-0.9,0.2
		c-6.6,3.7-14.1,5.6-21.7,5.6c-24.6,0-44.6-20-44.6-44.6c0-11.9,4.6-23.1,13.1-31.6C25.4,19.6,36.6,15,48.5,15h0.1
		C73.1,15,93.1,35,93.1,59.6c0,7.6-2,15.1-5.6,21.7c-0.3,0.5-0.3,1.1-0.1,1.7c0.2,0.5,0.7,1,1.3,1.1c0.2,0.1,0.4,0.1,0.6,0.1
		c0.7,0,1.4-0.4,1.7-1c5.7-10.1,7.4-21.7,5.1-33.4C94.8,43.7,92.5,38,89,32.8C79.7,19,64.9,11.1,48.5,11.1c-13,0-25.1,5-34.3,14.2
		C5,34.5,0,46.7,0,59.6s5,25.1,14.2,34.3c9.2,9.2,21.3,14.2,34.3,14.2c8.3,0,16.4-2.1,23.6-6.1C72.9,101.6,73.3,100.6,73,99.7
		L73,99.7z"/>
	<path clip-path="url(#SVGID_2_)" fill="#FFFFFF" d="M97.5,97c-0.4-5.5-4.8-10-10.3-10.3c-0.2,0-0.5,0-0.7,0c-3,0-6,1.3-8.1,3.5
		c-2.1,2.3-3.2,5.2-3,8.3c0.4,5.5,4.8,10,10.3,10.3c0.2,0,0.5,0,0.7,0l0,0c3,0,6-1.3,8.1-3.5C96.7,103,97.7,100.1,97.5,97
		 M93.6,98.4c-0.3,3.4-3.1,6.2-6.5,6.5c-0.2,0-0.4,0-0.7,0c-2,0-3.9-0.9-5.3-2.3c-1.4-1.5-2-3.5-1.9-5.5c0.3-3.4,3.1-6.2,6.5-6.5
		c0.2,0,0.4,0,0.7,0c2,0,3.9,0.9,5.3,2.3C93.2,94.4,93.8,96.3,93.6,98.4"/>
	<path clip-path="url(#SVGID_2_)" fill="#FFFFFF" d="M46.2,59.6c0,0.5,0.2,1.1,0.6,1.5c0.4,0.4,0.9,0.6,1.5,0.6s1.1-0.2,1.5-0.6
		l14.4-14.4c0.8-0.8,0.8-2.1,0-2.9c-4.2-4.2-9.8-6.5-15.8-6.5c-6,0-11.6,2.3-15.8,6.5c-4.2,4.2-6.5,9.8-6.5,15.8
		c0,6,2.3,11.6,6.5,15.8c4.2,4.2,9.8,6.5,15.8,6.5c6,0,11.6-2.3,15.8-6.5c4.2-4.2,6.6-9.9,6.6-15.8c0-1.1-0.9-2.1-2.1-2.1
		c-1.1,0-2.1,0.9-2.1,2.1c0,4.9-1.9,9.5-5.4,12.9c-3.5,3.4-8,5.3-12.9,5.3c-4.9,0-9.5-1.9-12.9-5.3c-3.4-3.5-5.3-8-5.3-12.9
		c0-4.9,1.9-9.5,5.3-12.9c3.4-3.4,8-5.3,12.9-5.3c3.3,0,6.5,0.9,9.3,2.5l2.2,1.3l-13,13C46.4,58.5,46.2,59.1,46.2,59.6"/>
</g>
</svg>
